<svg width="86" height="86" viewBox="0 0 86 86" fill="none" xmlns="http://www.w3.org/2000/svg">
	<g filter="url(#filter0_d_3_175)">
		<circle cx="38" cy="38" r="37" fill="#8094AF" />
		<path d="M31.0695 51.8608C30.3072 51.8608 29.6543 51.5891 29.111 51.0458C28.5677 50.5024 28.2964 49.8501 28.2974 49.0886C28.2974 48.3263 28.569 47.6734 29.1124 47.1301C29.6557 46.5868 30.3081 46.3155 31.0695 46.3165C31.8319 46.3165 32.4847 46.5881 33.0281 47.1315C33.5714 47.6748 33.8426 48.3272 33.8417 49.0886C33.8417 49.851 33.57 50.5038 33.0267 51.0472C32.4833 51.5905 31.831 51.8617 31.0695 51.8608ZM44.9304 51.8608C44.168 51.8608 43.5152 51.5891 42.9719 51.0458C42.4285 50.5024 42.1573 49.8501 42.1582 49.0886C42.1582 48.3263 42.4299 47.6734 42.9732 47.1301C43.5166 46.5868 44.169 46.3155 44.9304 46.3165C45.6927 46.3165 46.3456 46.5881 46.8889 47.1315C47.4323 47.6748 47.7035 48.3272 47.7026 49.0886C47.7026 49.851 47.4309 50.5038 46.8875 51.0472C46.3442 51.5905 45.6918 51.8617 44.9304 51.8608ZM29.8914 29.6834L33.218 36.6139H42.9206L46.7323 29.6834H29.8914ZM28.5746 26.9113H49.0193C49.5507 26.9113 49.955 27.1483 50.2322 27.6223C50.5094 28.0964 50.5209 28.5755 50.2668 29.0597L45.3462 37.9306C45.0921 38.3927 44.7511 38.7508 44.3233 39.0049C43.8954 39.259 43.4279 39.386 42.9206 39.386H32.5942L31.0695 42.1582H47.7026V44.9304H31.0695C30.03 44.9304 29.2445 44.4739 28.7132 43.5609C28.1819 42.648 28.1588 41.7415 28.6439 40.8414L30.5151 37.4455L25.5252 26.9113H22.753V24.1391H27.2578L28.5746 26.9113Z" fill="white" />
	</g>
	<defs>
		<filter id="filter0_d_3_175" x="0" y="0" width="86" height="86" filterUnits="userSpaceOnUse" color-interpolation-filters="sRGB">
			<feFlood flood-opacity="0" result="BackgroundImageFix" />
			<feColorMatrix in="SourceAlpha" type="matrix" values="0 0 0 0 0 0 0 0 0 0 0 0 0 0 0 0 0 0 127 0" result="hardAlpha" />
			<feOffset dx="5" dy="5" />
			<feGaussianBlur stdDeviation="3" />
			<feComposite in2="hardAlpha" operator="out" />
			<feColorMatrix type="matrix" values="0 0 0 0 0 0 0 0 0 0 0 0 0 0 0 0 0 0 0.61 0" />
			<feBlend mode="normal" in2="BackgroundImageFix" result="effect1_dropShadow_3_175" />
			<feBlend mode="normal" in="SourceGraphic" in2="effect1_dropShadow_3_175" result="shape" />
		</filter>
	</defs>
</svg>
